<?xml version="1.0" encoding="UTF-8"?>
<svg version="1.1" viewBox="0 0 1200 1200" xmlns="http://www.w3.org/2000/svg">
    <g>
        <path d="m692.4 696c24-73.199 74.398-133.2 142.8-166.8 26.398-13.199 55.199-22.801 85.199-27.602v-102h78c18 0 32.398-14.398 32.398-32.398v-39.602c0-12-6-22.801-16.801-27.602l-466.8-264c-9.6016-6-21.602-6-31.199 0l-165.6 93.602v-34.801c0-12-9.6016-21.602-21.602-21.602h-73.199c-12 0-21.602 9.6016-21.602 21.602v100.8l-187.2 105.6c-9.6016 6-16.801 16.801-16.801 27.602v38.398c0 18 14.398 32.398 32.398 32.398h78v457.2c0 28.801 24 52.801 52.801 52.801h512.4c-32.398-64.797-37.199-142.8-13.199-213.6z"/>
        <path d="m1147.2 692.4c-51.602-102-175.2-141.6-276-91.199-102 51.602-140.4 178.8-91.199 276 21.602 43.199 109.2 194.4 154.8 273.6 13.199 21.602 44.398 21.602 57.602 0 45.602-79.199 132-230.4 154.8-273.6 31.195-56.398 29.996-124.8-0.003906-184.8zm-183.6 182.4c-49.199 0-88.801-39.602-88.801-88.801s39.602-88.801 88.801-88.801c49.199 0 88.801 39.602 88.801 88.801-0.003906 48-39.602 88.801-88.801 88.801z"/>
    </g>
</svg>
