<svg width="720" height="720" viewBox="0 0 720 720" fill="none" xmlns="http://www.w3.org/2000/svg">
<path d="M392.679 394.429C401.255 368.274 419.262 346.836 443.702 334.831C453.134 330.115 463.425 326.684 474.144 324.968V288.524H502.013C508.445 288.524 513.589 283.379 513.589 276.948V262.798C513.589 258.51 511.445 254.651 507.586 252.936L340.798 158.608C337.367 156.464 333.079 156.464 329.65 158.608L270.481 192.052V179.618C270.481 175.33 267.05 171.899 262.763 171.899H236.608C232.321 171.899 228.89 175.33 228.89 179.618V215.634L162.003 253.365C158.572 255.508 156 259.368 156 263.227V276.947C156 283.378 161.144 288.522 167.576 288.522H195.445V451.881C195.445 462.172 204.021 470.747 214.311 470.747H397.393C385.817 447.595 384.102 419.724 392.677 394.427L392.679 394.429Z" fill="black"/>
<path d="M555.179 393.142C536.741 356.697 492.58 342.548 456.564 360.557C420.119 378.994 406.398 424.442 423.978 459.172C431.697 474.607 462.995 528.631 479.288 556.93C484.004 564.648 495.152 564.648 499.87 556.93C516.163 528.632 547.034 474.607 555.18 459.172C566.326 439.021 565.898 414.581 555.179 393.143L555.179 393.142ZM489.578 458.314C471.999 458.314 457.85 444.164 457.85 426.585C457.85 409.006 471.999 394.857 489.578 394.857C507.157 394.857 521.307 409.006 521.307 426.585C521.306 443.736 507.157 458.314 489.578 458.314Z" fill="black"/>
</svg>
