<svg width="1200" height="1200" viewBox="0 0 1200 1200" fill="none" xmlns="http://www.w3.org/2000/svg">
<rect width="1200" height="1200"/>
    <path d="M933.304 726.431V474.34C980.934 469.023 1024.72 445.681 1055.67 409.107C1086.61 372.533 1102.37 325.504 1099.71 277.679C1097.05 229.854 1076.16 184.864 1041.34 151.949C1006.52 119.034 960.418 100.693 912.492 100.693C864.566 100.693 818.459 119.034 783.641 151.949C748.823 184.864 727.938 229.854 725.274 277.679C722.61 325.504 738.37 372.533 769.317 409.107C800.264 445.681 844.049 469.023 891.679 474.34V686.843C878.191 661.205 858.829 639.119 835.171 622.387C773.934 579.546 693.319 579.546 599.991 579.546C513.717 579.546 439.148 579.546 388.764 544.296C363.383 525.506 344.258 499.508 333.883 469.692C380.204 457.979 420.318 429.063 446.057 388.831C471.795 348.598 481.224 300.074 472.423 253.137C463.622 206.201 437.253 164.381 398.685 136.193C360.117 108.004 312.249 95.5668 264.828 101.412C217.407 107.257 173.998 130.946 143.438 167.656C112.879 204.365 97.4667 251.334 100.34 299.002C103.214 346.669 124.157 391.449 158.905 424.226C193.653 457.003 239.594 475.312 287.374 475.425H291.405C307.451 521.442 331.48 555.065 364.657 578.306C425.893 621.147 506.508 621.147 599.836 621.147C686.11 621.147 760.679 621.147 811.064 656.397C836.449 675.199 855.596 701.191 866.022 731.001C820.666 742.556 781.273 770.646 755.586 809.752C729.9 848.858 719.776 896.152 727.204 942.339C734.632 988.525 759.076 1030.27 795.731 1059.36C832.386 1088.45 878.601 1102.78 925.296 1099.55C971.99 1096.32 1015.79 1075.75 1048.08 1041.88C1080.37 1008.02 1098.82 963.307 1099.8 916.538C1100.79 869.769 1084.23 824.322 1053.4 789.13C1022.56 753.938 979.666 731.546 933.149 726.353M141.724 288.1C141.724 259.278 150.276 231.104 166.297 207.14C182.318 183.176 205.09 164.499 231.732 153.469C258.374 142.44 287.691 139.554 315.974 145.177C344.258 150.799 370.238 164.678 390.629 185.058C411.02 205.438 424.907 231.403 430.533 259.671C436.159 287.938 433.272 317.238 422.236 343.865C411.2 370.493 392.512 393.252 368.534 409.264C344.557 425.276 316.367 433.823 287.529 433.823C248.872 433.782 211.81 418.416 184.475 391.096C157.14 363.777 141.765 326.735 141.724 288.1ZM766.648 288.1C766.633 259.256 775.178 231.057 791.201 207.068C807.225 183.079 830.008 164.38 856.668 153.335C883.328 142.29 912.666 139.396 940.972 145.019C969.277 150.643 995.278 164.531 1015.69 184.926C1036.09 205.321 1049.99 231.307 1055.61 259.597C1061.24 287.887 1058.34 317.209 1047.29 343.853C1036.24 370.498 1017.53 393.268 993.53 409.283C969.528 425.298 941.312 433.838 912.453 433.823C873.802 433.761 836.751 418.388 809.421 391.073C782.091 363.758 766.709 326.729 766.648 288.1Z" fill="white"/>
</svg>
